<svg version="1.0" xmlns="http://www.w3.org/2000/svg"
 width="300.000000pt" height="243.000000pt" viewBox="0 0 300.000000 243.000000"
 preserveAspectRatio="xMidYMid meet">
<metadata>
Created by potrace 1.10, written by Peter Selinger 2001-2011
</metadata>
<g transform="translate(0.000000,243.000000) scale(0.100000,-0.100000)"
fill="#000000" stroke="none">
<path d="M1220 2265 c-214 -36 -402 -120 -559 -250 -50 -41 -57 -51 -41 -53
12 -2 39 12 68 35 311 256 750 322 1131 171 91 -36 190 -93 276 -158 81 -63
132 -71 59 -9 -264 219 -614 318 -934 264z"/>
<path d="M2440 1568 c0 -19 10 -70 22 -114 32 -119 32 -363 0 -490 -13 -50
-22 -106 -20 -125 3 -31 5 -28 24 36 44 144 49 176 48 345 -1 155 -3 172 -32
269 -17 57 -33 106 -36 109 -4 3 -6 -10 -6 -30z"/>
<path d="M323 1525 c-35 -119 -45 -208 -40 -359 4 -122 10 -167 30 -236 24
-82 25 -84 26 -40 1 25 -6 80 -14 123 -19 102 -19 283 1 387 8 45 14 100 12
123 l-3 42 -12 -40z"/>
<path d="M655 1510 c-3 -5 -6 -139 -6 -297 0 -277 1 -288 20 -297 11 -4 36 -5
56 -2 l36 7 -3 250 c-2 137 0 249 4 249 3 0 12 -17 19 -37 6 -21 45 -134 87
-251 65 -186 77 -213 98 -218 21 -5 94 2 94 9 0 9 170 501 175 505 3 3 5 -110
5 -250 0 -277 -2 -268 55 -268 57 0 55 -12 55 299 0 210 -3 290 -12 299 -18
18 -157 16 -179 -4 -9 -8 -49 -105 -89 -215 -40 -110 -74 -198 -75 -197 -2 2
-35 89 -75 193 -39 105 -78 200 -86 213 -13 20 -23 22 -94 22 -43 0 -82 -4
-85 -10z m143 -39 c7 -4 44 -88 82 -186 38 -98 78 -188 89 -199 l21 -20 27 20
c21 16 40 58 89 193 35 95 68 179 75 187 9 11 28 14 68 12 l56 -3 3 -257 c2
-225 0 -258 -13 -258 -18 0 -17 -10 -21 225 -1 105 -3 195 -3 201 -1 7 -10 22
-20 35 l-19 24 -26 -24 c-14 -13 -30 -40 -36 -60 -6 -20 -15 -45 -20 -56 -5
-11 -29 -81 -53 -155 -25 -74 -50 -147 -57 -162 -27 -58 -67 -43 -94 34 -106
305 -131 366 -158 395 -29 31 -36 29 -54 -12 -11 -26 -14 -83 -14 -240 0 -191
-1 -206 -17 -203 -17 3 -18 23 -18 243 0 132 3 248 7 258 5 12 19 17 50 17 24
0 49 -4 56 -9z"/>
<path d="M1442 1508 c-9 -9 -12 -89 -12 -300 l0 -287 36 -7 c19 -3 44 -2 55 2
20 9 20 19 19 264 0 140 3 251 6 247 4 -4 47 -119 94 -255 95 -271 96 -272
171 -258 l34 6 85 250 c47 137 87 250 90 250 3 0 4 -112 2 -249 l-4 -249 31
-7 c17 -4 45 -4 61 0 l30 7 0 287 c0 210 -3 290 -12 299 -16 16 -159 16 -181
0 -8 -7 -49 -105 -91 -218 -65 -179 -75 -202 -84 -180 -5 14 -39 106 -76 205
-37 99 -75 186 -83 193 -22 16 -155 16 -171 0z m145 -36 c11 -7 29 -52 99
-242 51 -136 76 -170 114 -150 25 13 34 33 106 234 29 82 59 153 66 158 7 4
37 8 65 8 46 0 53 -3 58 -22 3 -13 4 -129 3 -258 -3 -201 -5 -235 -18 -235
-13 0 -16 33 -20 215 -5 206 -13 260 -39 260 -15 0 -50 -46 -64 -85 -8 -22
-31 -85 -50 -140 -96 -277 -96 -277 -136 -256 -17 10 -71 132 -71 162 0 8 -4
19 -8 25 -4 5 -14 27 -21 49 -35 107 -76 202 -98 225 l-24 25 -20 -24 c-17
-21 -19 -40 -19 -220 0 -207 -4 -241 -26 -241 -12 0 -14 44 -14 253 0 140 3
257 7 260 9 9 95 8 110 -1z"/>
<path d="M665 394 c170 -142 397 -233 628 -253 247 -21 490 33 702 158 59 34
66 41 43 41 -15 0 -56 -15 -90 -34 -329 -180 -730 -186 -1065 -17 -43 21 -106
60 -141 85 -34 25 -72 46 -85 46 -21 -1 -21 -2 8 -26z"/>
</g>
</svg>
